<?xml version="1.0" encoding="UTF-8" standalone="no"?>
<!DOCTYPE svg PUBLIC "-//W3C//DTD SVG 1.1//EN"
 "http://www.w3.org/Graphics/SVG/1.1/DTD/svg11.dtd">
<!-- Generated by graphviz version 2.40.1 (20161225.0304)
 -->
<!-- Title: dependencies Pages: 1 -->
<svg width="504pt" height="211pt"
 viewBox="0.00 0.00 504.00 211.00" xmlns="http://www.w3.org/2000/svg" xmlns:xlink="http://www.w3.org/1999/xlink">
<g id="graph0" class="graph" transform="scale(1 1) rotate(0) translate(4 207)">
<title>dependencies</title>
<polygon fill="#ffffff" stroke="transparent" points="-4,4 -4,-207 500,-207 500,4 -4,4"/>
<text text-anchor="start" x="227.0091" y="-42.4" font-family="sans-serif" font-weight="bold" font-size="14.00" fill="#000000">Legend</text>
<polygon fill="#ffffb3" stroke="transparent" points="14,-10 14,-30 34,-30 34,-10 14,-10"/>
<text text-anchor="start" x="37.629" y="-15.4" font-family="sans-serif" font-size="14.00" fill="#000000"> &#160;Declarations</text>
<polygon fill="#8dd3c7" stroke="transparent" points="127,-10 127,-30 147,-30 147,-10 127,-10"/>
<text text-anchor="start" x="150.7251" y="-15.4" font-family="sans-serif" font-size="14.00" fill="#000000"> &#160;Module</text>
<polygon fill="#80b1d3" stroke="transparent" points="213,-10 213,-30 233,-30 233,-10 213,-10"/>
<text text-anchor="start" x="236.7812" y="-15.4" font-family="sans-serif" font-size="14.00" fill="#000000"> &#160;Bootstrap</text>
<polygon fill="#fdb462" stroke="transparent" points="310,-10 310,-30 330,-30 330,-10 310,-10"/>
<text text-anchor="start" x="333.6732" y="-15.4" font-family="sans-serif" font-size="14.00" fill="#000000"> &#160;Providers</text>
<polygon fill="#fb8072" stroke="transparent" points="406,-10 406,-30 426,-30 426,-10 406,-10"/>
<text text-anchor="start" x="429.7258" y="-15.4" font-family="sans-serif" font-size="14.00" fill="#000000"> &#160;Exports</text>
<g id="clust1" class="cluster">
<title>cluster_ClientiListPageModule</title>
<polygon fill="none" stroke="#000000" stroke-dasharray="1,5" points="119,-70 119,-195 377,-195 377,-70 119,-70"/>
</g>
<g id="clust2" class="cluster">
<title>cluster_ClientiListPageModule_declarations</title>
<polygon fill="none" stroke="#000000" points="249,-78 249,-130 369,-130 369,-78 249,-78"/>
</g>
<g id="clust4" class="cluster">
<title>cluster_ClientiListPageModule_imports</title>
<polygon fill="none" stroke="#000000" points="127,-78 127,-130 241,-130 241,-78 127,-78"/>
</g>
<!-- ClientiListPage -->
<g id="node1" class="node">
<title>ClientiListPage</title>
<polygon fill="#ffffb3" stroke="#000000" points="360.6039,-122 257.3961,-122 257.3961,-86 360.6039,-86 360.6039,-122"/>
<text text-anchor="middle" x="309" y="-99.8" font-family="Times,serif" font-size="14.00" fill="#000000">ClientiListPage</text>
</g>
<!-- ClientiListPageModule -->
<g id="node2" class="node">
<title>ClientiListPageModule</title>
<polygon fill="#8dd3c7" stroke="#000000" points="321.154,-187 318.154,-191 297.154,-191 294.154,-187 174.846,-187 174.846,-151 321.154,-151 321.154,-187"/>
<text text-anchor="middle" x="248" y="-164.8" font-family="Times,serif" font-size="14.00" fill="#000000">ClientiListPageModule</text>
</g>
<!-- ClientiListPage&#45;&gt;ClientiListPageModule -->
<g id="edge1" class="edge">
<title>ClientiListPage&#45;&gt;ClientiListPageModule</title>
<path fill="none" stroke="#000000" d="M289.3875,-122.1061C289.3875,-122.1061 289.3875,-140.991 289.3875,-140.991"/>
<polygon fill="#000000" stroke="#000000" points="285.8875,-140.9909 289.3875,-150.991 292.8875,-140.991 285.8875,-140.9909"/>
</g>
<!-- SharedModule -->
<g id="node3" class="node">
<title>SharedModule</title>
<polygon fill="#8dd3c7" stroke="#000000" points="233.4231,-122 230.4231,-126 209.4231,-126 206.4231,-122 134.5769,-122 134.5769,-86 233.4231,-86 233.4231,-122"/>
<text text-anchor="middle" x="184" y="-99.8" font-family="Times,serif" font-size="14.00" fill="#000000">SharedModule</text>
</g>
<!-- SharedModule&#45;&gt;ClientiListPageModule -->
<g id="edge2" class="edge">
<title>SharedModule&#45;&gt;ClientiListPageModule</title>
<path fill="none" stroke="#000000" d="M203.9422,-122.1061C203.9422,-122.1061 203.9422,-140.991 203.9422,-140.991"/>
<polygon fill="#000000" stroke="#000000" points="200.4422,-140.9909 203.9422,-150.991 207.4422,-140.991 200.4422,-140.9909"/>
</g>
</g>
</svg>
