<?xml version="1.0" encoding="UTF-8" standalone="no"?>
<!DOCTYPE svg PUBLIC "-//W3C//DTD SVG 1.1//EN"
 "http://www.w3.org/Graphics/SVG/1.1/DTD/svg11.dtd">
<!-- Generated by graphviz version 2.40.1 (20161225.0304)
 -->
<!-- Title: dependencies Pages: 1 -->
<svg width="504pt" height="284pt"
 viewBox="0.00 0.00 504.00 284.00" xmlns="http://www.w3.org/2000/svg" xmlns:xlink="http://www.w3.org/1999/xlink">
<g id="graph0" class="graph" transform="scale(1 1) rotate(0) translate(4 280)">
<title>dependencies</title>
<polygon fill="#ffffff" stroke="transparent" points="-4,4 -4,-280 500,-280 500,4 -4,4"/>
<text text-anchor="start" x="227.0091" y="-42.4" font-family="sans-serif" font-weight="bold" font-size="14.00" fill="#000000">Legend</text>
<polygon fill="#ffffb3" stroke="transparent" points="14,-10 14,-30 34,-30 34,-10 14,-10"/>
<text text-anchor="start" x="37.629" y="-15.4" font-family="sans-serif" font-size="14.00" fill="#000000"> &#160;Declarations</text>
<polygon fill="#8dd3c7" stroke="transparent" points="127,-10 127,-30 147,-30 147,-10 127,-10"/>
<text text-anchor="start" x="150.7251" y="-15.4" font-family="sans-serif" font-size="14.00" fill="#000000"> &#160;Module</text>
<polygon fill="#80b1d3" stroke="transparent" points="213,-10 213,-30 233,-30 233,-10 213,-10"/>
<text text-anchor="start" x="236.7812" y="-15.4" font-family="sans-serif" font-size="14.00" fill="#000000"> &#160;Bootstrap</text>
<polygon fill="#fdb462" stroke="transparent" points="310,-10 310,-30 330,-30 330,-10 310,-10"/>
<text text-anchor="start" x="333.6732" y="-15.4" font-family="sans-serif" font-size="14.00" fill="#000000"> &#160;Providers</text>
<polygon fill="#fb8072" stroke="transparent" points="406,-10 406,-30 426,-30 426,-10 406,-10"/>
<text text-anchor="start" x="429.7258" y="-15.4" font-family="sans-serif" font-size="14.00" fill="#000000"> &#160;Exports</text>
<g id="clust1" class="cluster">
<title>cluster_SharedModule</title>
<polygon fill="none" stroke="#000000" stroke-dasharray="1,5" points="65,-70 65,-268 431,-268 431,-70 65,-70"/>
</g>
<g id="clust2" class="cluster">
<title>cluster_SharedModule_declarations</title>
<polygon fill="none" stroke="#000000" points="76,-78 76,-130 420,-130 420,-78 76,-78"/>
</g>
<g id="clust6" class="cluster">
<title>cluster_SharedModule_exports</title>
<polygon fill="none" stroke="#000000" points="73,-208 73,-260 423,-260 423,-208 73,-208"/>
</g>
<!-- CarrelloAppbarComponent -->
<g id="node1" class="node">
<title>CarrelloAppbarComponent</title>
<polygon fill="#ffffb3" stroke="#000000" points="411.6825,-122 242.3175,-122 242.3175,-86 411.6825,-86 411.6825,-122"/>
<text text-anchor="middle" x="327" y="-99.8" font-family="Times,serif" font-size="14.00" fill="#000000">CarrelloAppbarComponent</text>
</g>
<!-- SharedModule -->
<g id="node3" class="node">
<title>SharedModule</title>
<polygon fill="#8dd3c7" stroke="#000000" points="204.4231,-187 201.4231,-191 180.4231,-191 177.4231,-187 105.5769,-187 105.5769,-151 204.4231,-151 204.4231,-187"/>
<text text-anchor="middle" x="155" y="-164.8" font-family="Times,serif" font-size="14.00" fill="#000000">SharedModule</text>
</g>
<!-- CarrelloAppbarComponent&#45;&gt;SharedModule -->
<g id="edge1" class="edge">
<title>CarrelloAppbarComponent&#45;&gt;SharedModule</title>
<path fill="none" stroke="#000000" d="M355.2804,-122.0225C355.2804,-139.3734 355.2804,-163 355.2804,-163 355.2804,-163 214.2506,-163 214.2506,-163"/>
<polygon fill="#000000" stroke="#000000" points="214.2506,-159.5001 204.2506,-163 214.2506,-166.5001 214.2506,-159.5001"/>
</g>
<!-- FabButtonComponent -->
<g id="node2" class="node">
<title>FabButtonComponent</title>
<polygon fill="#ffffb3" stroke="#000000" points="224.4481,-122 83.5519,-122 83.5519,-86 224.4481,-86 224.4481,-122"/>
<text text-anchor="middle" x="154" y="-99.8" font-family="Times,serif" font-size="14.00" fill="#000000">FabButtonComponent</text>
</g>
<!-- FabButtonComponent&#45;&gt;SharedModule -->
<g id="edge2" class="edge">
<title>FabButtonComponent&#45;&gt;SharedModule</title>
<path fill="none" stroke="#000000" d="M155,-122.1061C155,-122.1061 155,-140.991 155,-140.991"/>
<polygon fill="#000000" stroke="#000000" points="151.5001,-140.9909 155,-150.991 158.5001,-140.991 151.5001,-140.9909"/>
</g>
<!-- CarrelloAppbarComponent  -->
<g id="node4" class="node">
<title>CarrelloAppbarComponent </title>
<polygon fill="#fb8072" stroke="#000000" points="415.1827,-252 242.8173,-252 242.8173,-216 415.1827,-216 415.1827,-252"/>
<text text-anchor="middle" x="329" y="-229.8" font-family="Times,serif" font-size="14.00" fill="#000000">CarrelloAppbarComponent </text>
</g>
<!-- SharedModule&#45;&gt;CarrelloAppbarComponent  -->
<g id="edge3" class="edge">
<title>SharedModule&#45;&gt;CarrelloAppbarComponent </title>
<path fill="none" stroke="#000000" stroke-dasharray="5,2" d="M204.5462,-175C246.1914,-175 298.9696,-175 298.9696,-175 298.9696,-175 298.9696,-205.9775 298.9696,-205.9775"/>
<polygon fill="#000000" stroke="#000000" points="295.4697,-205.9774 298.9696,-215.9775 302.4697,-205.9775 295.4697,-205.9774"/>
</g>
<!-- FabButtonComponent  -->
<g id="node5" class="node">
<title>FabButtonComponent </title>
<polygon fill="#fb8072" stroke="#000000" points="224.9474,-252 81.0526,-252 81.0526,-216 224.9474,-216 224.9474,-252"/>
<text text-anchor="middle" x="153" y="-229.8" font-family="Times,serif" font-size="14.00" fill="#000000">FabButtonComponent </text>
</g>
<!-- SharedModule&#45;&gt;FabButtonComponent  -->
<g id="edge4" class="edge">
<title>SharedModule&#45;&gt;FabButtonComponent </title>
<path fill="none" stroke="#000000" stroke-dasharray="5,2" d="M155,-187.1061C155,-187.1061 155,-205.991 155,-205.991"/>
<polygon fill="#000000" stroke="#000000" points="151.5001,-205.9909 155,-215.991 158.5001,-205.991 151.5001,-205.9909"/>
</g>
</g>
</svg>
