<?xml version="1.0" encoding="UTF-8" standalone="no"?>
<!DOCTYPE svg PUBLIC "-//W3C//DTD SVG 1.1//EN"
 "http://www.w3.org/Graphics/SVG/1.1/DTD/svg11.dtd">
<!-- Generated by graphviz version 2.40.1 (20161225.0304)
 -->
<!-- Title: dependencies Pages: 1 -->
<svg width="5455pt" height="290pt"
 viewBox="0.00 0.00 5455.00 290.00" xmlns="http://www.w3.org/2000/svg" xmlns:xlink="http://www.w3.org/1999/xlink">
<g id="graph0" class="graph" transform="scale(1 1) rotate(0) translate(4 286)">
<title>dependencies</title>
<polygon fill="#ffffff" stroke="transparent" points="-4,4 -4,-286 5451,-286 5451,4 -4,4"/>
<text text-anchor="start" x="2702.5091" y="-42.4" font-family="sans-serif" font-weight="bold" font-size="14.00" fill="#000000">Legend</text>
<polygon fill="#ffffb3" stroke="transparent" points="2489.5,-10 2489.5,-30 2509.5,-30 2509.5,-10 2489.5,-10"/>
<text text-anchor="start" x="2513.129" y="-15.4" font-family="sans-serif" font-size="14.00" fill="#000000"> &#160;Declarations</text>
<polygon fill="#8dd3c7" stroke="transparent" points="2602.5,-10 2602.5,-30 2622.5,-30 2622.5,-10 2602.5,-10"/>
<text text-anchor="start" x="2626.2251" y="-15.4" font-family="sans-serif" font-size="14.00" fill="#000000"> &#160;Module</text>
<polygon fill="#80b1d3" stroke="transparent" points="2688.5,-10 2688.5,-30 2708.5,-30 2708.5,-10 2688.5,-10"/>
<text text-anchor="start" x="2712.2812" y="-15.4" font-family="sans-serif" font-size="14.00" fill="#000000"> &#160;Bootstrap</text>
<polygon fill="#fdb462" stroke="transparent" points="2785.5,-10 2785.5,-30 2805.5,-30 2805.5,-10 2785.5,-10"/>
<text text-anchor="start" x="2809.1732" y="-15.4" font-family="sans-serif" font-size="14.00" fill="#000000"> &#160;Providers</text>
<polygon fill="#fb8072" stroke="transparent" points="2881.5,-10 2881.5,-30 2901.5,-30 2901.5,-10 2881.5,-10"/>
<text text-anchor="start" x="2905.2258" y="-15.4" font-family="sans-serif" font-size="14.00" fill="#000000"> &#160;Exports</text>
<g id="clust1" class="cluster">
<title>cluster_AppModule</title>
<polygon fill="none" stroke="#000000" stroke-dasharray="1,5" points="8,-70 8,-274 1333,-274 1333,-70 8,-70"/>
</g>
<g id="clust2" class="cluster">
<title>cluster_AppModule_declarations</title>
<polygon fill="none" stroke="#000000" points="1203,-78 1203,-130 1325,-130 1325,-78 1203,-78"/>
</g>
<g id="clust4" class="cluster">
<title>cluster_AppModule_imports</title>
<polygon fill="none" stroke="#000000" points="1051,-78 1051,-130 1195,-130 1195,-78 1051,-78"/>
</g>
<g id="clust6" class="cluster">
<title>cluster_AppModule_bootstrap</title>
<polygon fill="none" stroke="#000000" points="621,-214 621,-266 745,-266 745,-214 621,-214"/>
</g>
<g id="clust7" class="cluster">
<title>cluster_AppModule_providers</title>
<polygon fill="none" stroke="#000000" points="16,-78 16,-130 1043,-130 1043,-78 16,-78"/>
</g>
<g id="clust14" class="cluster">
<title>cluster_ArticoliListPageModule</title>
<polygon fill="none" stroke="#000000" stroke-dasharray="1,5" points="1341,-70 1341,-198 1509,-198 1509,-70 1341,-70"/>
</g>
<g id="clust15" class="cluster">
<title>cluster_ArticoliListPageModule_declarations</title>
<polygon fill="none" stroke="#000000" points="1363,-78 1363,-130 1487,-130 1487,-78 1363,-78"/>
</g>
<g id="clust21" class="cluster">
<title>cluster_ArticoliPreferitiListPageModule</title>
<polygon fill="none" stroke="#000000" stroke-dasharray="1,5" points="1517,-70 1517,-198 1731,-198 1731,-70 1517,-70"/>
</g>
<g id="clust22" class="cluster">
<title>cluster_ArticoliPreferitiListPageModule_declarations</title>
<polygon fill="none" stroke="#000000" points="1539,-78 1539,-130 1709,-130 1709,-78 1539,-78"/>
</g>
<g id="clust28" class="cluster">
<title>cluster_ArticoloInfoPageModule</title>
<polygon fill="none" stroke="#000000" stroke-dasharray="1,5" points="1739,-70 1739,-198 1911,-198 1911,-70 1739,-70"/>
</g>
<g id="clust29" class="cluster">
<title>cluster_ArticoloInfoPageModule_declarations</title>
<polygon fill="none" stroke="#000000" points="1760,-78 1760,-130 1890,-130 1890,-78 1760,-78"/>
</g>
<g id="clust35" class="cluster">
<title>cluster_CarrelloPageModule</title>
<polygon fill="none" stroke="#000000" stroke-dasharray="1,5" points="1919,-70 1919,-198 2067,-198 2067,-70 1919,-70"/>
</g>
<g id="clust36" class="cluster">
<title>cluster_CarrelloPageModule_declarations</title>
<polygon fill="none" stroke="#000000" points="1940,-78 1940,-130 2046,-130 2046,-78 1940,-78"/>
</g>
<g id="clust42" class="cluster">
<title>cluster_ClienteInfoPageModule</title>
<polygon fill="none" stroke="#000000" stroke-dasharray="1,5" points="2075,-70 2075,-198 2335,-198 2335,-70 2075,-70"/>
</g>
<g id="clust43" class="cluster">
<title>cluster_ClienteInfoPageModule_declarations</title>
<polygon fill="none" stroke="#000000" points="2083,-78 2083,-130 2205,-130 2205,-78 2083,-78"/>
</g>
<g id="clust45" class="cluster">
<title>cluster_ClienteInfoPageModule_imports</title>
<polygon fill="none" stroke="#000000" points="2213,-78 2213,-130 2327,-130 2327,-78 2213,-78"/>
</g>
<g id="clust49" class="cluster">
<title>cluster_ClientiListPageModule</title>
<polygon fill="none" stroke="#000000" stroke-dasharray="1,5" points="3069,-70 3069,-198 3231,-198 3231,-70 3069,-70"/>
</g>
<g id="clust50" class="cluster">
<title>cluster_ClientiListPageModule_declarations</title>
<polygon fill="none" stroke="#000000" points="3090,-78 3090,-130 3210,-130 3210,-78 3090,-78"/>
</g>
<g id="clust56" class="cluster">
<title>cluster_DestinatariListPageModule</title>
<polygon fill="none" stroke="#000000" stroke-dasharray="1,5" points="3677,-70 3677,-198 3863,-198 3863,-70 3677,-70"/>
</g>
<g id="clust57" class="cluster">
<title>cluster_DestinatariListPageModule_declarations</title>
<polygon fill="none" stroke="#000000" points="3699,-78 3699,-130 3841,-130 3841,-78 3699,-78"/>
</g>
<g id="clust63" class="cluster">
<title>cluster_DestinatarioInfoPageModule</title>
<polygon fill="none" stroke="#000000" stroke-dasharray="1,5" points="3871,-70 3871,-198 4065,-198 4065,-70 3871,-70"/>
</g>
<g id="clust64" class="cluster">
<title>cluster_DestinatarioInfoPageModule_declarations</title>
<polygon fill="none" stroke="#000000" points="3893,-78 3893,-130 4043,-130 4043,-78 3893,-78"/>
</g>
<g id="clust70" class="cluster">
<title>cluster_HomePageModule</title>
<polygon fill="none" stroke="#000000" stroke-dasharray="1,5" points="3239,-70 3239,-198 3375,-198 3375,-70 3239,-70"/>
</g>
<g id="clust71" class="cluster">
<title>cluster_HomePageModule_declarations</title>
<polygon fill="none" stroke="#000000" points="3260,-78 3260,-130 3354,-130 3354,-78 3260,-78"/>
</g>
<g id="clust77" class="cluster">
<title>cluster_ListinoMarca2PageModule</title>
<polygon fill="none" stroke="#000000" stroke-dasharray="1,5" points="4073,-70 4073,-198 4259,-198 4259,-70 4073,-70"/>
</g>
<g id="clust78" class="cluster">
<title>cluster_ListinoMarca2PageModule_declarations</title>
<polygon fill="none" stroke="#000000" points="4095,-78 4095,-130 4237,-130 4237,-78 4095,-78"/>
</g>
<g id="clust84" class="cluster">
<title>cluster_ListinoMarcaPageModule</title>
<polygon fill="none" stroke="#000000" stroke-dasharray="1,5" points="4267,-70 4267,-198 4445,-198 4445,-70 4267,-70"/>
</g>
<g id="clust85" class="cluster">
<title>cluster_ListinoMarcaPageModule_declarations</title>
<polygon fill="none" stroke="#000000" points="4289,-78 4289,-130 4423,-130 4423,-78 4289,-78"/>
</g>
<g id="clust91" class="cluster">
<title>cluster_LogViewerPageModule</title>
<polygon fill="none" stroke="#000000" stroke-dasharray="1,5" points="4453,-70 4453,-198 4619,-198 4619,-70 4453,-70"/>
</g>
<g id="clust92" class="cluster">
<title>cluster_LogViewerPageModule_declarations</title>
<polygon fill="none" stroke="#000000" points="4475,-78 4475,-130 4597,-130 4597,-78 4475,-78"/>
</g>
<g id="clust98" class="cluster">
<title>cluster_OrdineViewerPageModule</title>
<polygon fill="none" stroke="#000000" stroke-dasharray="1,5" points="4627,-70 4627,-198 4809,-198 4809,-70 4627,-70"/>
</g>
<g id="clust99" class="cluster">
<title>cluster_OrdineViewerPageModule_declarations</title>
<polygon fill="none" stroke="#000000" points="4648,-78 4648,-130 4788,-130 4788,-78 4648,-78"/>
</g>
<g id="clust105" class="cluster">
<title>cluster_OrdiniListPageModule</title>
<polygon fill="none" stroke="#000000" stroke-dasharray="1,5" points="4817,-70 4817,-198 4979,-198 4979,-70 4817,-70"/>
</g>
<g id="clust106" class="cluster">
<title>cluster_OrdiniListPageModule_declarations</title>
<polygon fill="none" stroke="#000000" points="4839,-78 4839,-130 4957,-130 4957,-78 4839,-78"/>
</g>
<g id="clust112" class="cluster">
<title>cluster_RiepilogoPageModule</title>
<polygon fill="none" stroke="#000000" stroke-dasharray="1,5" points="4987,-70 4987,-198 5145,-198 5145,-70 4987,-70"/>
</g>
<g id="clust113" class="cluster">
<title>cluster_RiepilogoPageModule_declarations</title>
<polygon fill="none" stroke="#000000" points="5009,-78 5009,-130 5123,-130 5123,-78 5009,-78"/>
</g>
<g id="clust119" class="cluster">
<title>cluster_SettingsPageModule</title>
<polygon fill="none" stroke="#000000" stroke-dasharray="1,5" points="3383,-70 3383,-198 3531,-198 3531,-70 3383,-70"/>
</g>
<g id="clust120" class="cluster">
<title>cluster_SettingsPageModule_declarations</title>
<polygon fill="none" stroke="#000000" points="3405,-78 3405,-130 3509,-130 3509,-78 3405,-78"/>
</g>
<g id="clust126" class="cluster">
<title>cluster_SharedModule</title>
<polygon fill="none" stroke="#000000" stroke-dasharray="1,5" points="2343,-138 2343,-206 3061,-206 3061,-138 2343,-138"/>
</g>
<g id="clust127" class="cluster">
<title>cluster_SharedModule_declarations</title>
<polygon fill="none" stroke="#000000" points="2709,-146 2709,-198 3053,-198 3053,-146 2709,-146"/>
</g>
<g id="clust131" class="cluster">
<title>cluster_SharedModule_exports</title>
<polygon fill="none" stroke="#000000" points="2351,-146 2351,-198 2701,-198 2701,-146 2351,-146"/>
</g>
<g id="clust134" class="cluster">
<title>cluster_SyncPageModule</title>
<polygon fill="none" stroke="#000000" stroke-dasharray="1,5" points="3539,-70 3539,-198 3669,-198 3669,-70 3539,-70"/>
</g>
<g id="clust135" class="cluster">
<title>cluster_SyncPageModule_declarations</title>
<polygon fill="none" stroke="#000000" points="3560,-78 3560,-130 3648,-130 3648,-78 3560,-78"/>
</g>
<g id="clust141" class="cluster">
<title>cluster_TabsPageModule</title>
<polygon fill="none" stroke="#000000" stroke-dasharray="1,5" points="5153,-70 5153,-198 5439,-198 5439,-70 5153,-70"/>
</g>
<g id="clust142" class="cluster">
<title>cluster_TabsPageModule_declarations</title>
<polygon fill="none" stroke="#000000" points="5345,-78 5345,-130 5431,-130 5431,-78 5345,-78"/>
</g>
<g id="clust144" class="cluster">
<title>cluster_TabsPageModule_imports</title>
<polygon fill="none" stroke="#000000" points="5161,-78 5161,-130 5337,-130 5337,-78 5161,-78"/>
</g>
<!-- AppComponent -->
<g id="node1" class="node">
<title>AppComponent</title>
<polygon fill="#ffffb3" stroke="#000000" points="1316.9399,-122 1211.0601,-122 1211.0601,-86 1316.9399,-86 1316.9399,-122"/>
<text text-anchor="middle" x="1264" y="-99.8" font-family="Times,serif" font-size="14.00" fill="#000000">AppComponent</text>
</g>
<!-- AppModule -->
<g id="node2" class="node">
<title>AppModule</title>
<polygon fill="#8dd3c7" stroke="#000000" points="724.6571,-190 721.6571,-194 700.6571,-194 697.6571,-190 641.3429,-190 641.3429,-154 724.6571,-154 724.6571,-190"/>
<text text-anchor="middle" x="683" y="-167.8" font-family="Times,serif" font-size="14.00" fill="#000000">AppModule</text>
</g>
<!-- AppComponent&#45;&gt;AppModule -->
<g id="edge1" class="edge">
<title>AppComponent&#45;&gt;AppModule</title>
<path fill="none" stroke="#000000" d="M1264,-122.3228C1264,-145.6602 1264,-183 1264,-183 1264,-183 734.7841,-183 734.7841,-183"/>
<polygon fill="#000000" stroke="#000000" points="734.7841,-179.5001 724.7841,-183 734.7841,-186.5001 734.7841,-179.5001"/>
</g>
<!-- AppComponent  -->
<g id="node4" class="node">
<title>AppComponent </title>
<polygon fill="#80b1d3" stroke="#000000" points="737.439,-258 628.561,-258 628.561,-222 737.439,-222 737.439,-258"/>
<text text-anchor="middle" x="683" y="-235.8" font-family="Times,serif" font-size="14.00" fill="#000000">AppComponent </text>
</g>
<!-- AppModule&#45;&gt;AppComponent  -->
<g id="edge3" class="edge">
<title>AppModule&#45;&gt;AppComponent </title>
<path fill="none" stroke="#000000" stroke-dasharray="1,5" d="M683,-190.2228C683,-190.2228 683,-211.7269 683,-211.7269"/>
<polygon fill="#000000" stroke="#000000" points="679.5001,-211.7269 683,-221.7269 686.5001,-211.727 679.5001,-211.7269"/>
</g>
<!-- AppRoutingModule -->
<g id="node3" class="node">
<title>AppRoutingModule</title>
<polygon fill="#8dd3c7" stroke="#000000" points="1187.2744,-122 1184.2744,-126 1163.2744,-126 1160.2744,-122 1058.7256,-122 1058.7256,-86 1187.2744,-86 1187.2744,-122"/>
<text text-anchor="middle" x="1123" y="-99.8" font-family="Times,serif" font-size="14.00" fill="#000000">AppRoutingModule</text>
</g>
<!-- AppRoutingModule&#45;&gt;AppModule -->
<g id="edge2" class="edge">
<title>AppRoutingModule&#45;&gt;AppModule</title>
<path fill="none" stroke="#000000" d="M1123,-122.1686C1123,-143.498 1123,-176 1123,-176 1123,-176 734.7908,-176 734.7908,-176"/>
<polygon fill="#000000" stroke="#000000" points="734.7908,-172.5001 724.7908,-176 734.7908,-179.5001 734.7908,-172.5001"/>
</g>
<!-- DbProvider -->
<g id="node5" class="node">
<title>DbProvider</title>
<ellipse fill="#fdb462" stroke="#000000" cx="683" cy="-104" rx="56.1802" ry="18"/>
<text text-anchor="middle" x="683" y="-99.8" font-family="Times,serif" font-size="14.00" fill="#000000">DbProvider</text>
</g>
<!-- DbProvider&#45;&gt;AppModule -->
<g id="edge4" class="edge">
<title>DbProvider&#45;&gt;AppModule</title>
<path fill="none" stroke="#000000" d="M683,-122.2228C683,-122.2228 683,-143.7269 683,-143.7269"/>
<polygon fill="#000000" stroke="#000000" points="679.5001,-143.7269 683,-153.7269 686.5001,-143.727 679.5001,-143.7269"/>
</g>
<!-- DbToolProvider -->
<g id="node6" class="node">
<title>DbToolProvider</title>
<ellipse fill="#fdb462" stroke="#000000" cx="535" cy="-104" rx="74.1605" ry="18"/>
<text text-anchor="middle" x="535" y="-99.8" font-family="Times,serif" font-size="14.00" fill="#000000">DbToolProvider</text>
</g>
<!-- DbToolProvider&#45;&gt;AppModule -->
<g id="edge5" class="edge">
<title>DbToolProvider&#45;&gt;AppModule</title>
<path fill="none" stroke="#000000" d="M535,-122.0336C535,-139.0597 535,-162 535,-162 535,-162 630.985,-162 630.985,-162"/>
<polygon fill="#000000" stroke="#000000" points="630.9851,-165.5001 640.985,-162 630.985,-158.5001 630.9851,-165.5001"/>
</g>
<!-- FileProvider -->
<g id="node7" class="node">
<title>FileProvider</title>
<ellipse fill="#fdb462" stroke="#000000" cx="383" cy="-104" rx="59.1257" ry="18"/>
<text text-anchor="middle" x="383" y="-99.8" font-family="Times,serif" font-size="14.00" fill="#000000">FileProvider</text>
</g>
<!-- FileProvider&#45;&gt;AppModule -->
<g id="edge6" class="edge">
<title>FileProvider&#45;&gt;AppModule</title>
<path fill="none" stroke="#000000" d="M383,-122.1061C383,-141.3391 383,-169 383,-169 383,-169 631.2863,-169 631.2863,-169"/>
<polygon fill="#000000" stroke="#000000" points="631.2863,-172.5001 641.2863,-169 631.2863,-165.5001 631.2863,-172.5001"/>
</g>
<!-- GlobalProvider -->
<g id="node8" class="node">
<title>GlobalProvider</title>
<ellipse fill="#fdb462" stroke="#000000" cx="235" cy="-104" rx="70.6451" ry="18"/>
<text text-anchor="middle" x="235" y="-99.8" font-family="Times,serif" font-size="14.00" fill="#000000">GlobalProvider</text>
</g>
<!-- GlobalProvider&#45;&gt;AppModule -->
<g id="edge7" class="edge">
<title>GlobalProvider&#45;&gt;AppModule</title>
<path fill="none" stroke="#000000" d="M235,-122.1686C235,-143.498 235,-176 235,-176 235,-176 631.2555,-176 631.2555,-176"/>
<polygon fill="#000000" stroke="#000000" points="631.2556,-179.5001 641.2555,-176 631.2555,-172.5001 631.2556,-179.5001"/>
</g>
<!-- RestProvider -->
<g id="node9" class="node">
<title>RestProvider</title>
<ellipse fill="#fdb462" stroke="#000000" cx="85" cy="-104" rx="61.4128" ry="18"/>
<text text-anchor="middle" x="85" y="-99.8" font-family="Times,serif" font-size="14.00" fill="#000000">RestProvider</text>
</g>
<!-- RestProvider&#45;&gt;AppModule -->
<g id="edge8" class="edge">
<title>RestProvider&#45;&gt;AppModule</title>
<path fill="none" stroke="#000000" d="M85,-122.3228C85,-145.6602 85,-183 85,-183 85,-183 630.9498,-183 630.9498,-183"/>
<polygon fill="#000000" stroke="#000000" points="630.9498,-186.5001 640.9498,-183 630.9498,-179.5001 630.9498,-186.5001"/>
</g>
<!-- SyncProvider -->
<g id="node10" class="node">
<title>SyncProvider</title>
<ellipse fill="#fdb462" stroke="#000000" cx="971" cy="-104" rx="63.7045" ry="18"/>
<text text-anchor="middle" x="971" y="-99.8" font-family="Times,serif" font-size="14.00" fill="#000000">SyncProvider</text>
</g>
<!-- SyncProvider&#45;&gt;AppModule -->
<g id="edge9" class="edge">
<title>SyncProvider&#45;&gt;AppModule</title>
<path fill="none" stroke="#000000" d="M971,-122.1061C971,-141.3391 971,-169 971,-169 971,-169 734.8777,-169 734.8777,-169"/>
<polygon fill="#000000" stroke="#000000" points="734.8777,-165.5001 724.8777,-169 734.8776,-172.5001 734.8777,-165.5001"/>
</g>
<!-- ToolsProvider -->
<g id="node11" class="node">
<title>ToolsProvider</title>
<ellipse fill="#fdb462" stroke="#000000" cx="823" cy="-104" rx="66.0723" ry="18"/>
<text text-anchor="middle" x="823" y="-99.8" font-family="Times,serif" font-size="14.00" fill="#000000">ToolsProvider</text>
</g>
<!-- ToolsProvider&#45;&gt;AppModule -->
<g id="edge10" class="edge">
<title>ToolsProvider&#45;&gt;AppModule</title>
<path fill="none" stroke="#000000" d="M823,-122.0336C823,-139.0597 823,-162 823,-162 823,-162 735.0046,-162 735.0046,-162"/>
<polygon fill="#000000" stroke="#000000" points="735.0047,-158.5001 725.0046,-162 735.0046,-165.5001 735.0047,-158.5001"/>
</g>
<!-- ArticoliListPage -->
<g id="node12" class="node">
<title>ArticoliListPage</title>
<polygon fill="#ffffb3" stroke="#000000" points="1479.0354,-122 1370.9646,-122 1370.9646,-86 1479.0354,-86 1479.0354,-122"/>
<text text-anchor="middle" x="1425" y="-99.8" font-family="Times,serif" font-size="14.00" fill="#000000">ArticoliListPage</text>
</g>
<!-- ArticoliListPageModule -->
<g id="node13" class="node">
<title>ArticoliListPageModule</title>
<polygon fill="#8dd3c7" stroke="#000000" points="1501.0842,-190 1498.0842,-194 1477.0842,-194 1474.0842,-190 1348.9158,-190 1348.9158,-154 1501.0842,-154 1501.0842,-190"/>
<text text-anchor="middle" x="1425" y="-167.8" font-family="Times,serif" font-size="14.00" fill="#000000">ArticoliListPageModule</text>
</g>
<!-- ArticoliListPage&#45;&gt;ArticoliListPageModule -->
<g id="edge11" class="edge">
<title>ArticoliListPage&#45;&gt;ArticoliListPageModule</title>
<path fill="none" stroke="#000000" d="M1425,-122.2228C1425,-122.2228 1425,-143.7269 1425,-143.7269"/>
<polygon fill="#000000" stroke="#000000" points="1421.5001,-143.7269 1425,-153.7269 1428.5001,-143.727 1421.5001,-143.7269"/>
</g>
<!-- ArticoliPreferitiListPage -->
<g id="node14" class="node">
<title>ArticoliPreferitiListPage</title>
<polygon fill="#ffffb3" stroke="#000000" points="1701.4003,-122 1546.5997,-122 1546.5997,-86 1701.4003,-86 1701.4003,-122"/>
<text text-anchor="middle" x="1624" y="-99.8" font-family="Times,serif" font-size="14.00" fill="#000000">ArticoliPreferitiListPage</text>
</g>
<!-- ArticoliPreferitiListPageModule -->
<g id="node15" class="node">
<title>ArticoliPreferitiListPageModule</title>
<polygon fill="#8dd3c7" stroke="#000000" points="1722.9496,-190 1719.9496,-194 1698.9496,-194 1695.9496,-190 1525.0504,-190 1525.0504,-154 1722.9496,-154 1722.9496,-190"/>
<text text-anchor="middle" x="1624" y="-167.8" font-family="Times,serif" font-size="14.00" fill="#000000">ArticoliPreferitiListPageModule</text>
</g>
<!-- ArticoliPreferitiListPage&#45;&gt;ArticoliPreferitiListPageModule -->
<g id="edge12" class="edge">
<title>ArticoliPreferitiListPage&#45;&gt;ArticoliPreferitiListPageModule</title>
<path fill="none" stroke="#000000" d="M1624,-122.2228C1624,-122.2228 1624,-143.7269 1624,-143.7269"/>
<polygon fill="#000000" stroke="#000000" points="1620.5001,-143.7269 1624,-153.7269 1627.5001,-143.727 1620.5001,-143.7269"/>
</g>
<!-- ArticoloInfoPage -->
<g id="node16" class="node">
<title>ArticoloInfoPage</title>
<polygon fill="#ffffb3" stroke="#000000" points="1881.6868,-122 1768.3132,-122 1768.3132,-86 1881.6868,-86 1881.6868,-122"/>
<text text-anchor="middle" x="1825" y="-99.8" font-family="Times,serif" font-size="14.00" fill="#000000">ArticoloInfoPage</text>
</g>
<!-- ArticoloInfoPageModule -->
<g id="node17" class="node">
<title>ArticoloInfoPageModule</title>
<polygon fill="#8dd3c7" stroke="#000000" points="1903.2366,-190 1900.2366,-194 1879.2366,-194 1876.2366,-190 1746.7634,-190 1746.7634,-154 1903.2366,-154 1903.2366,-190"/>
<text text-anchor="middle" x="1825" y="-167.8" font-family="Times,serif" font-size="14.00" fill="#000000">ArticoloInfoPageModule</text>
</g>
<!-- ArticoloInfoPage&#45;&gt;ArticoloInfoPageModule -->
<g id="edge13" class="edge">
<title>ArticoloInfoPage&#45;&gt;ArticoloInfoPageModule</title>
<path fill="none" stroke="#000000" d="M1825,-122.2228C1825,-122.2228 1825,-143.7269 1825,-143.7269"/>
<polygon fill="#000000" stroke="#000000" points="1821.5001,-143.7269 1825,-153.7269 1828.5001,-143.727 1821.5001,-143.7269"/>
</g>
<!-- CarrelloPage -->
<g id="node18" class="node">
<title>CarrelloPage</title>
<polygon fill="#ffffb3" stroke="#000000" points="2037.58,-122 1948.42,-122 1948.42,-86 2037.58,-86 2037.58,-122"/>
<text text-anchor="middle" x="1993" y="-99.8" font-family="Times,serif" font-size="14.00" fill="#000000">CarrelloPage</text>
</g>
<!-- CarrelloPageModule -->
<g id="node19" class="node">
<title>CarrelloPageModule</title>
<polygon fill="#8dd3c7" stroke="#000000" points="2059.1303,-190 2056.1303,-194 2035.1303,-194 2032.1303,-190 1926.8697,-190 1926.8697,-154 2059.1303,-154 2059.1303,-190"/>
<text text-anchor="middle" x="1993" y="-167.8" font-family="Times,serif" font-size="14.00" fill="#000000">CarrelloPageModule</text>
</g>
<!-- CarrelloPage&#45;&gt;CarrelloPageModule -->
<g id="edge14" class="edge">
<title>CarrelloPage&#45;&gt;CarrelloPageModule</title>
<path fill="none" stroke="#000000" d="M1993,-122.2228C1993,-122.2228 1993,-143.7269 1993,-143.7269"/>
<polygon fill="#000000" stroke="#000000" points="1989.5001,-143.7269 1993,-153.7269 1996.5001,-143.727 1989.5001,-143.7269"/>
</g>
<!-- ClienteInfoPage -->
<g id="node20" class="node">
<title>ClienteInfoPage</title>
<polygon fill="#ffffb3" stroke="#000000" points="2197.4706,-122 2090.5294,-122 2090.5294,-86 2197.4706,-86 2197.4706,-122"/>
<text text-anchor="middle" x="2144" y="-99.8" font-family="Times,serif" font-size="14.00" fill="#000000">ClienteInfoPage</text>
</g>
<!-- ClienteInfoPageModule -->
<g id="node21" class="node">
<title>ClienteInfoPageModule</title>
<polygon fill="#8dd3c7" stroke="#000000" points="2280.0212,-190 2277.0212,-194 2256.0212,-194 2253.0212,-190 2129.9788,-190 2129.9788,-154 2280.0212,-154 2280.0212,-190"/>
<text text-anchor="middle" x="2205" y="-167.8" font-family="Times,serif" font-size="14.00" fill="#000000">ClienteInfoPageModule</text>
</g>
<!-- ClienteInfoPage&#45;&gt;ClienteInfoPageModule -->
<g id="edge15" class="edge">
<title>ClienteInfoPage&#45;&gt;ClienteInfoPageModule</title>
<path fill="none" stroke="#000000" d="M2163.6126,-122.2228C2163.6126,-122.2228 2163.6126,-143.7269 2163.6126,-143.7269"/>
<polygon fill="#000000" stroke="#000000" points="2160.1126,-143.7269 2163.6126,-153.7269 2167.1126,-143.727 2160.1126,-143.7269"/>
</g>
<!-- SharedModule -->
<g id="node22" class="node">
<title>SharedModule</title>
<polygon fill="#8dd3c7" stroke="#000000" points="2319.4231,-122 2316.4231,-126 2295.4231,-126 2292.4231,-122 2220.5769,-122 2220.5769,-86 2319.4231,-86 2319.4231,-122"/>
<text text-anchor="middle" x="2270" y="-99.8" font-family="Times,serif" font-size="14.00" fill="#000000">SharedModule</text>
</g>
<!-- SharedModule&#45;&gt;ClienteInfoPageModule -->
<g id="edge16" class="edge">
<title>SharedModule&#45;&gt;ClienteInfoPageModule</title>
<path fill="none" stroke="#000000" d="M2250.5246,-122.2228C2250.5246,-122.2228 2250.5246,-143.7269 2250.5246,-143.7269"/>
<polygon fill="#000000" stroke="#000000" points="2247.0246,-143.7269 2250.5246,-153.7269 2254.0246,-143.727 2247.0246,-143.7269"/>
</g>
<!-- ClientiListPageModule -->
<g id="node24" class="node">
<title>ClientiListPageModule</title>
<polygon fill="#8dd3c7" stroke="#000000" points="3223.154,-190 3220.154,-194 3199.154,-194 3196.154,-190 3076.846,-190 3076.846,-154 3223.154,-154 3223.154,-190"/>
<text text-anchor="middle" x="3150" y="-167.8" font-family="Times,serif" font-size="14.00" fill="#000000">ClientiListPageModule</text>
</g>
<!-- SharedModule&#45;&gt;ClientiListPageModule -->
<g id="edge18" class="edge">
<title>SharedModule&#45;&gt;ClientiListPageModule</title>
<path fill="none" stroke="#000000" d="M2319.3009,-94C2496.0584,-94 3087.5607,-94 3087.5607,-94 3087.5607,-94 3087.5607,-143.9092 3087.5607,-143.9092"/>
<polygon fill="#000000" stroke="#000000" points="3084.0607,-143.9091 3087.5607,-153.9092 3091.0607,-143.9092 3084.0607,-143.9091"/>
</g>
<!-- HomePageModule -->
<g id="node30" class="node">
<title>HomePageModule</title>
<polygon fill="#8dd3c7" stroke="#000000" points="3367.4734,-190 3364.4734,-194 3343.4734,-194 3340.4734,-190 3246.5266,-190 3246.5266,-154 3367.4734,-154 3367.4734,-190"/>
<text text-anchor="middle" x="3307" y="-167.8" font-family="Times,serif" font-size="14.00" fill="#000000">HomePageModule</text>
</g>
<!-- SharedModule&#45;&gt;HomePageModule -->
<g id="edge22" class="edge">
<title>SharedModule&#45;&gt;HomePageModule</title>
<path fill="none" stroke="#000000" d="M2288.0504,-122.0555C2288.0504,-133.439 2288.0504,-146 2288.0504,-146 2288.0504,-146 3257.4007,-146 3257.4007,-146 3257.4007,-146 3257.4007,-146.7942 3257.4007,-146.7942"/>
<polygon fill="#000000" stroke="#000000" points="3253.9009,-143.9421 3257.4007,-153.9421 3260.9009,-143.9422 3253.9009,-143.9421"/>
</g>
<!-- SettingsPageModule -->
<g id="node44" class="node">
<title>SettingsPageModule</title>
<polygon fill="#8dd3c7" stroke="#000000" points="3522.8753,-190 3519.8753,-194 3498.8753,-194 3495.8753,-190 3391.1247,-190 3391.1247,-154 3522.8753,-154 3522.8753,-190"/>
<text text-anchor="middle" x="3457" y="-167.8" font-family="Times,serif" font-size="14.00" fill="#000000">SettingsPageModule</text>
</g>
<!-- SharedModule&#45;&gt;SettingsPageModule -->
<g id="edge30" class="edge">
<title>SharedModule&#45;&gt;SettingsPageModule</title>
<path fill="none" stroke="#000000" d="M2295.8406,-122.1944C2295.8406,-130.2782 2295.8406,-138 2295.8406,-138 2295.8406,-138 3401.9499,-138 3401.9499,-138 3401.9499,-138 3401.9499,-143.8056 3401.9499,-143.8056"/>
<polygon fill="#000000" stroke="#000000" points="3398.4499,-143.8055 3401.9499,-153.8056 3405.4499,-143.8056 3398.4499,-143.8055"/>
</g>
<!-- CarrelloAppbarComponent  -->
<g id="node47" class="node">
<title>CarrelloAppbarComponent </title>
<polygon fill="#fb8072" stroke="#000000" points="2693.1827,-190 2520.8173,-190 2520.8173,-154 2693.1827,-154 2693.1827,-190"/>
<text text-anchor="middle" x="2607" y="-167.8" font-family="Times,serif" font-size="14.00" fill="#000000">CarrelloAppbarComponent </text>
</g>
<!-- SharedModule&#45;&gt;CarrelloAppbarComponent  -->
<g id="edge33" class="edge">
<title>SharedModule&#45;&gt;CarrelloAppbarComponent </title>
<path fill="none" stroke="#000000" stroke-dasharray="5,2" d="M2319.3636,-115C2412.9686,-115 2607,-115 2607,-115 2607,-115 2607,-143.9648 2607,-143.9648"/>
<polygon fill="#000000" stroke="#000000" points="2603.5001,-143.9648 2607,-153.9648 2610.5001,-143.9649 2603.5001,-143.9648"/>
</g>
<!-- FabButtonComponent  -->
<g id="node48" class="node">
<title>FabButtonComponent </title>
<polygon fill="#fb8072" stroke="#000000" points="2502.9474,-190 2359.0526,-190 2359.0526,-154 2502.9474,-154 2502.9474,-190"/>
<text text-anchor="middle" x="2431" y="-167.8" font-family="Times,serif" font-size="14.00" fill="#000000">FabButtonComponent </text>
</g>
<!-- SharedModule&#45;&gt;FabButtonComponent  -->
<g id="edge34" class="edge">
<title>SharedModule&#45;&gt;FabButtonComponent </title>
<path fill="none" stroke="#000000" stroke-dasharray="5,2" d="M2311.4209,-122.2228C2311.4209,-142.3652 2311.4209,-172 2311.4209,-172 2311.4209,-172 2349.0253,-172 2349.0253,-172"/>
<polygon fill="#000000" stroke="#000000" points="2349.0254,-175.5001 2359.0253,-172 2349.0253,-168.5001 2349.0254,-175.5001"/>
</g>
<!-- SyncPageModule -->
<g id="node50" class="node">
<title>SyncPageModule</title>
<polygon fill="#8dd3c7" stroke="#000000" points="3661.2591,-190 3658.2591,-194 3637.2591,-194 3634.2591,-190 3546.7409,-190 3546.7409,-154 3661.2591,-154 3661.2591,-190"/>
<text text-anchor="middle" x="3604" y="-167.8" font-family="Times,serif" font-size="14.00" fill="#000000">SyncPageModule</text>
</g>
<!-- SharedModule&#45;&gt;SyncPageModule -->
<g id="edge36" class="edge">
<title>SharedModule&#45;&gt;SyncPageModule</title>
<path fill="none" stroke="#000000" d="M2303.6307,-122.0579C2303.6307,-126.4945 2303.6307,-130 2303.6307,-130 2303.6307,-130 3557.5081,-130 3557.5081,-130 3557.5081,-130 3557.5081,-143.9445 3557.5081,-143.9445"/>
<polygon fill="#000000" stroke="#000000" points="3554.0081,-143.9444 3557.5081,-153.9445 3561.0081,-143.9445 3554.0081,-143.9444"/>
</g>
<!-- ClientiListPage -->
<g id="node23" class="node">
<title>ClientiListPage</title>
<polygon fill="#ffffb3" stroke="#000000" points="3201.6039,-122 3098.3961,-122 3098.3961,-86 3201.6039,-86 3201.6039,-122"/>
<text text-anchor="middle" x="3150" y="-99.8" font-family="Times,serif" font-size="14.00" fill="#000000">ClientiListPage</text>
</g>
<!-- ClientiListPage&#45;&gt;ClientiListPageModule -->
<g id="edge17" class="edge">
<title>ClientiListPage&#45;&gt;ClientiListPageModule</title>
<path fill="none" stroke="#000000" d="M3150,-122.2228C3150,-122.2228 3150,-143.7269 3150,-143.7269"/>
<polygon fill="#000000" stroke="#000000" points="3146.5001,-143.7269 3150,-153.7269 3153.5001,-143.727 3146.5001,-143.7269"/>
</g>
<!-- DestinatariListPage -->
<g id="node25" class="node">
<title>DestinatariListPage</title>
<polygon fill="#ffffb3" stroke="#000000" points="3833.4089,-122 3706.5911,-122 3706.5911,-86 3833.4089,-86 3833.4089,-122"/>
<text text-anchor="middle" x="3770" y="-99.8" font-family="Times,serif" font-size="14.00" fill="#000000">DestinatariListPage</text>
</g>
<!-- DestinatariListPageModule -->
<g id="node26" class="node">
<title>DestinatariListPageModule</title>
<polygon fill="#8dd3c7" stroke="#000000" points="3854.958,-190 3851.958,-194 3830.958,-194 3827.958,-190 3685.042,-190 3685.042,-154 3854.958,-154 3854.958,-190"/>
<text text-anchor="middle" x="3770" y="-167.8" font-family="Times,serif" font-size="14.00" fill="#000000">DestinatariListPageModule</text>
</g>
<!-- DestinatariListPage&#45;&gt;DestinatariListPageModule -->
<g id="edge19" class="edge">
<title>DestinatariListPage&#45;&gt;DestinatariListPageModule</title>
<path fill="none" stroke="#000000" d="M3770,-122.2228C3770,-122.2228 3770,-143.7269 3770,-143.7269"/>
<polygon fill="#000000" stroke="#000000" points="3766.5001,-143.7269 3770,-153.7269 3773.5001,-143.727 3766.5001,-143.7269"/>
</g>
<!-- DestinatarioInfoPage -->
<g id="node27" class="node">
<title>DestinatarioInfoPage</title>
<polygon fill="#ffffb3" stroke="#000000" points="4035.451,-122 3900.549,-122 3900.549,-86 4035.451,-86 4035.451,-122"/>
<text text-anchor="middle" x="3968" y="-99.8" font-family="Times,serif" font-size="14.00" fill="#000000">DestinatarioInfoPage</text>
</g>
<!-- DestinatarioInfoPageModule -->
<g id="node28" class="node">
<title>DestinatarioInfoPageModule</title>
<polygon fill="#8dd3c7" stroke="#000000" points="4057.0015,-190 4054.0015,-194 4033.0015,-194 4030.0015,-190 3878.9985,-190 3878.9985,-154 4057.0015,-154 4057.0015,-190"/>
<text text-anchor="middle" x="3968" y="-167.8" font-family="Times,serif" font-size="14.00" fill="#000000">DestinatarioInfoPageModule</text>
</g>
<!-- DestinatarioInfoPage&#45;&gt;DestinatarioInfoPageModule -->
<g id="edge20" class="edge">
<title>DestinatarioInfoPage&#45;&gt;DestinatarioInfoPageModule</title>
<path fill="none" stroke="#000000" d="M3968,-122.2228C3968,-122.2228 3968,-143.7269 3968,-143.7269"/>
<polygon fill="#000000" stroke="#000000" points="3964.5001,-143.7269 3968,-153.7269 3971.5001,-143.727 3964.5001,-143.7269"/>
</g>
<!-- HomePage -->
<g id="node29" class="node">
<title>HomePage</title>
<polygon fill="#ffffb3" stroke="#000000" points="3345.9248,-122 3268.0752,-122 3268.0752,-86 3345.9248,-86 3345.9248,-122"/>
<text text-anchor="middle" x="3307" y="-99.8" font-family="Times,serif" font-size="14.00" fill="#000000">HomePage</text>
</g>
<!-- HomePage&#45;&gt;HomePageModule -->
<g id="edge21" class="edge">
<title>HomePage&#45;&gt;HomePageModule</title>
<path fill="none" stroke="#000000" d="M3307,-122.2228C3307,-122.2228 3307,-143.7269 3307,-143.7269"/>
<polygon fill="#000000" stroke="#000000" points="3303.5001,-143.7269 3307,-153.7269 3310.5001,-143.727 3303.5001,-143.7269"/>
</g>
<!-- ListinoMarca2Page -->
<g id="node31" class="node">
<title>ListinoMarca2Page</title>
<polygon fill="#ffffb3" stroke="#000000" points="4228.6303,-122 4103.3697,-122 4103.3697,-86 4228.6303,-86 4228.6303,-122"/>
<text text-anchor="middle" x="4166" y="-99.8" font-family="Times,serif" font-size="14.00" fill="#000000">ListinoMarca2Page</text>
</g>
<!-- ListinoMarca2PageModule -->
<g id="node32" class="node">
<title>ListinoMarca2PageModule</title>
<polygon fill="#8dd3c7" stroke="#000000" points="4250.6797,-190 4247.6797,-194 4226.6797,-194 4223.6797,-190 4081.3203,-190 4081.3203,-154 4250.6797,-154 4250.6797,-190"/>
<text text-anchor="middle" x="4166" y="-167.8" font-family="Times,serif" font-size="14.00" fill="#000000">ListinoMarca2PageModule</text>
</g>
<!-- ListinoMarca2Page&#45;&gt;ListinoMarca2PageModule -->
<g id="edge23" class="edge">
<title>ListinoMarca2Page&#45;&gt;ListinoMarca2PageModule</title>
<path fill="none" stroke="#000000" d="M4166,-122.2228C4166,-122.2228 4166,-143.7269 4166,-143.7269"/>
<polygon fill="#000000" stroke="#000000" points="4162.5001,-143.7269 4166,-153.7269 4169.5001,-143.727 4162.5001,-143.7269"/>
</g>
<!-- ListinoMarcaPage -->
<g id="node33" class="node">
<title>ListinoMarcaPage</title>
<polygon fill="#ffffb3" stroke="#000000" points="4415.1304,-122 4296.8696,-122 4296.8696,-86 4415.1304,-86 4415.1304,-122"/>
<text text-anchor="middle" x="4356" y="-99.8" font-family="Times,serif" font-size="14.00" fill="#000000">ListinoMarcaPage</text>
</g>
<!-- ListinoMarcaPageModule -->
<g id="node34" class="node">
<title>ListinoMarcaPageModule</title>
<polygon fill="#8dd3c7" stroke="#000000" points="4437.1797,-190 4434.1797,-194 4413.1797,-194 4410.1797,-190 4274.8203,-190 4274.8203,-154 4437.1797,-154 4437.1797,-190"/>
<text text-anchor="middle" x="4356" y="-167.8" font-family="Times,serif" font-size="14.00" fill="#000000">ListinoMarcaPageModule</text>
</g>
<!-- ListinoMarcaPage&#45;&gt;ListinoMarcaPageModule -->
<g id="edge24" class="edge">
<title>ListinoMarcaPage&#45;&gt;ListinoMarcaPageModule</title>
<path fill="none" stroke="#000000" d="M4356,-122.2228C4356,-122.2228 4356,-143.7269 4356,-143.7269"/>
<polygon fill="#000000" stroke="#000000" points="4352.5001,-143.7269 4356,-153.7269 4359.5001,-143.727 4352.5001,-143.7269"/>
</g>
<!-- LogViewerPage -->
<g id="node35" class="node">
<title>LogViewerPage</title>
<polygon fill="#ffffb3" stroke="#000000" points="4589.458,-122 4482.542,-122 4482.542,-86 4589.458,-86 4589.458,-122"/>
<text text-anchor="middle" x="4536" y="-99.8" font-family="Times,serif" font-size="14.00" fill="#000000">LogViewerPage</text>
</g>
<!-- LogViewerPageModule -->
<g id="node36" class="node">
<title>LogViewerPageModule</title>
<polygon fill="#8dd3c7" stroke="#000000" points="4611.0086,-190 4608.0086,-194 4587.0086,-194 4584.0086,-190 4460.9914,-190 4460.9914,-154 4611.0086,-154 4611.0086,-190"/>
<text text-anchor="middle" x="4536" y="-167.8" font-family="Times,serif" font-size="14.00" fill="#000000">LogViewerPageModule</text>
</g>
<!-- LogViewerPage&#45;&gt;LogViewerPageModule -->
<g id="edge25" class="edge">
<title>LogViewerPage&#45;&gt;LogViewerPageModule</title>
<path fill="none" stroke="#000000" d="M4536,-122.2228C4536,-122.2228 4536,-143.7269 4536,-143.7269"/>
<polygon fill="#000000" stroke="#000000" points="4532.5001,-143.7269 4536,-153.7269 4539.5001,-143.727 4532.5001,-143.7269"/>
</g>
<!-- OrdineViewerPage -->
<g id="node37" class="node">
<title>OrdineViewerPage</title>
<polygon fill="#ffffb3" stroke="#000000" points="4779.7781,-122 4656.2219,-122 4656.2219,-86 4779.7781,-86 4779.7781,-122"/>
<text text-anchor="middle" x="4718" y="-99.8" font-family="Times,serif" font-size="14.00" fill="#000000">OrdineViewerPage</text>
</g>
<!-- OrdineViewerPageModule -->
<g id="node38" class="node">
<title>OrdineViewerPageModule</title>
<polygon fill="#8dd3c7" stroke="#000000" points="4801.3277,-190 4798.3277,-194 4777.3277,-194 4774.3277,-190 4634.6723,-190 4634.6723,-154 4801.3277,-154 4801.3277,-190"/>
<text text-anchor="middle" x="4718" y="-167.8" font-family="Times,serif" font-size="14.00" fill="#000000">OrdineViewerPageModule</text>
</g>
<!-- OrdineViewerPage&#45;&gt;OrdineViewerPageModule -->
<g id="edge26" class="edge">
<title>OrdineViewerPage&#45;&gt;OrdineViewerPageModule</title>
<path fill="none" stroke="#000000" d="M4718,-122.2228C4718,-122.2228 4718,-143.7269 4718,-143.7269"/>
<polygon fill="#000000" stroke="#000000" points="4714.5001,-143.7269 4718,-153.7269 4721.5001,-143.727 4714.5001,-143.7269"/>
</g>
<!-- OrdiniListPage -->
<g id="node39" class="node">
<title>OrdiniListPage</title>
<polygon fill="#ffffb3" stroke="#000000" points="4948.5396,-122 4847.4604,-122 4847.4604,-86 4948.5396,-86 4948.5396,-122"/>
<text text-anchor="middle" x="4898" y="-99.8" font-family="Times,serif" font-size="14.00" fill="#000000">OrdiniListPage</text>
</g>
<!-- OrdiniListPageModule -->
<g id="node40" class="node">
<title>OrdiniListPageModule</title>
<polygon fill="#8dd3c7" stroke="#000000" points="4970.5884,-190 4967.5884,-194 4946.5884,-194 4943.5884,-190 4825.4116,-190 4825.4116,-154 4970.5884,-154 4970.5884,-190"/>
<text text-anchor="middle" x="4898" y="-167.8" font-family="Times,serif" font-size="14.00" fill="#000000">OrdiniListPageModule</text>
</g>
<!-- OrdiniListPage&#45;&gt;OrdiniListPageModule -->
<g id="edge27" class="edge">
<title>OrdiniListPage&#45;&gt;OrdiniListPageModule</title>
<path fill="none" stroke="#000000" d="M4898,-122.2228C4898,-122.2228 4898,-143.7269 4898,-143.7269"/>
<polygon fill="#000000" stroke="#000000" points="4894.5001,-143.7269 4898,-153.7269 4901.5001,-143.727 4894.5001,-143.7269"/>
</g>
<!-- RiepilogoPage -->
<g id="node41" class="node">
<title>RiepilogoPage</title>
<polygon fill="#ffffb3" stroke="#000000" points="5115.4358,-122 5016.5642,-122 5016.5642,-86 5115.4358,-86 5115.4358,-122"/>
<text text-anchor="middle" x="5066" y="-99.8" font-family="Times,serif" font-size="14.00" fill="#000000">RiepilogoPage</text>
</g>
<!-- RiepilogoPageModule -->
<g id="node42" class="node">
<title>RiepilogoPageModule</title>
<polygon fill="#8dd3c7" stroke="#000000" points="5136.9846,-190 5133.9846,-194 5112.9846,-194 5109.9846,-190 4995.0154,-190 4995.0154,-154 5136.9846,-154 5136.9846,-190"/>
<text text-anchor="middle" x="5066" y="-167.8" font-family="Times,serif" font-size="14.00" fill="#000000">RiepilogoPageModule</text>
</g>
<!-- RiepilogoPage&#45;&gt;RiepilogoPageModule -->
<g id="edge28" class="edge">
<title>RiepilogoPage&#45;&gt;RiepilogoPageModule</title>
<path fill="none" stroke="#000000" d="M5066,-122.2228C5066,-122.2228 5066,-143.7269 5066,-143.7269"/>
<polygon fill="#000000" stroke="#000000" points="5062.5001,-143.7269 5066,-153.7269 5069.5001,-143.727 5062.5001,-143.7269"/>
</g>
<!-- SettingsPage -->
<g id="node43" class="node">
<title>SettingsPage</title>
<polygon fill="#ffffb3" stroke="#000000" points="3501.326,-122 3412.674,-122 3412.674,-86 3501.326,-86 3501.326,-122"/>
<text text-anchor="middle" x="3457" y="-99.8" font-family="Times,serif" font-size="14.00" fill="#000000">SettingsPage</text>
</g>
<!-- SettingsPage&#45;&gt;SettingsPageModule -->
<g id="edge29" class="edge">
<title>SettingsPage&#45;&gt;SettingsPageModule</title>
<path fill="none" stroke="#000000" d="M3457,-122.2228C3457,-122.2228 3457,-143.7269 3457,-143.7269"/>
<polygon fill="#000000" stroke="#000000" points="3453.5001,-143.7269 3457,-153.7269 3460.5001,-143.727 3453.5001,-143.7269"/>
</g>
<!-- CarrelloAppbarComponent -->
<g id="node45" class="node">
<title>CarrelloAppbarComponent</title>
<polygon fill="#ffffb3" stroke="#000000" points="3044.6825,-190 2875.3175,-190 2875.3175,-154 3044.6825,-154 3044.6825,-190"/>
<text text-anchor="middle" x="2960" y="-167.8" font-family="Times,serif" font-size="14.00" fill="#000000">CarrelloAppbarComponent</text>
</g>
<!-- CarrelloAppbarComponent&#45;&gt;SharedModule -->
<g id="edge31" class="edge">
<title>CarrelloAppbarComponent&#45;&gt;SharedModule</title>
<path fill="none" stroke="#000000" d="M2960,-153.7157C2960,-132.6789 2960,-101 2960,-101 2960,-101 2329.3462,-101 2329.3462,-101"/>
<polygon fill="#000000" stroke="#000000" points="2329.3462,-97.5001 2319.3462,-101 2329.3462,-104.5001 2329.3462,-97.5001"/>
</g>
<!-- FabButtonComponent -->
<g id="node46" class="node">
<title>FabButtonComponent</title>
<polygon fill="#ffffb3" stroke="#000000" points="2857.4481,-190 2716.5519,-190 2716.5519,-154 2857.4481,-154 2857.4481,-190"/>
<text text-anchor="middle" x="2787" y="-167.8" font-family="Times,serif" font-size="14.00" fill="#000000">FabButtonComponent</text>
</g>
<!-- FabButtonComponent&#45;&gt;SharedModule -->
<g id="edge32" class="edge">
<title>FabButtonComponent&#45;&gt;SharedModule</title>
<path fill="none" stroke="#000000" d="M2787,-153.8314C2787,-134.9102 2787,-108 2787,-108 2787,-108 2329.5721,-108 2329.5721,-108"/>
<polygon fill="#000000" stroke="#000000" points="2329.5722,-104.5001 2319.5721,-108 2329.5721,-111.5001 2329.5722,-104.5001"/>
</g>
<!-- SyncPage -->
<g id="node49" class="node">
<title>SyncPage</title>
<polygon fill="#ffffb3" stroke="#000000" points="3639.7093,-122 3568.2907,-122 3568.2907,-86 3639.7093,-86 3639.7093,-122"/>
<text text-anchor="middle" x="3604" y="-99.8" font-family="Times,serif" font-size="14.00" fill="#000000">SyncPage</text>
</g>
<!-- SyncPage&#45;&gt;SyncPageModule -->
<g id="edge35" class="edge">
<title>SyncPage&#45;&gt;SyncPageModule</title>
<path fill="none" stroke="#000000" d="M3604,-122.2228C3604,-122.2228 3604,-143.7269 3604,-143.7269"/>
<polygon fill="#000000" stroke="#000000" points="3600.5001,-143.7269 3604,-153.7269 3607.5001,-143.727 3600.5001,-143.7269"/>
</g>
<!-- TabsPage -->
<g id="node51" class="node">
<title>TabsPage</title>
<polygon fill="#ffffb3" stroke="#000000" points="5423.4249,-122 5352.5751,-122 5352.5751,-86 5423.4249,-86 5423.4249,-122"/>
<text text-anchor="middle" x="5388" y="-99.8" font-family="Times,serif" font-size="14.00" fill="#000000">TabsPage</text>
</g>
<!-- TabsPageModule -->
<g id="node52" class="node">
<title>TabsPageModule</title>
<polygon fill="#8dd3c7" stroke="#000000" points="5367.9734,-190 5364.9734,-194 5343.9734,-194 5340.9734,-190 5254.0266,-190 5254.0266,-154 5367.9734,-154 5367.9734,-190"/>
<text text-anchor="middle" x="5311" y="-167.8" font-family="Times,serif" font-size="14.00" fill="#000000">TabsPageModule</text>
</g>
<!-- TabsPage&#45;&gt;TabsPageModule -->
<g id="edge37" class="edge">
<title>TabsPage&#45;&gt;TabsPageModule</title>
<path fill="none" stroke="#000000" d="M5360.3875,-122.2228C5360.3875,-122.2228 5360.3875,-143.7269 5360.3875,-143.7269"/>
<polygon fill="#000000" stroke="#000000" points="5356.8875,-143.7269 5360.3875,-153.7269 5363.8875,-143.727 5356.8875,-143.7269"/>
</g>
<!-- TabsPageRoutingModule -->
<g id="node53" class="node">
<title>TabsPageRoutingModule</title>
<polygon fill="#8dd3c7" stroke="#000000" points="5328.5912,-122 5325.5912,-126 5304.5912,-126 5301.5912,-122 5169.4088,-122 5169.4088,-86 5328.5912,-86 5328.5912,-122"/>
<text text-anchor="middle" x="5249" y="-99.8" font-family="Times,serif" font-size="14.00" fill="#000000">TabsPageRoutingModule</text>
</g>
<!-- TabsPageRoutingModule&#45;&gt;TabsPageModule -->
<g id="edge38" class="edge">
<title>TabsPageRoutingModule&#45;&gt;TabsPageModule</title>
<path fill="none" stroke="#000000" d="M5291.2795,-122.2228C5291.2795,-122.2228 5291.2795,-143.7269 5291.2795,-143.7269"/>
<polygon fill="#000000" stroke="#000000" points="5287.7795,-143.7269 5291.2795,-153.7269 5294.7795,-143.727 5287.7795,-143.7269"/>
</g>
</g>
</svg>
