<?xml version="1.0" encoding="UTF-8" standalone="no"?>
<!DOCTYPE svg PUBLIC "-//W3C//DTD SVG 1.1//EN"
 "http://www.w3.org/Graphics/SVG/1.1/DTD/svg11.dtd">
<!-- Generated by graphviz version 2.40.1 (20161225.0304)
 -->
<!-- Title: dependencies Pages: 1 -->
<svg width="1349pt" height="284pt"
 viewBox="0.00 0.00 1349.00 284.00" xmlns="http://www.w3.org/2000/svg" xmlns:xlink="http://www.w3.org/1999/xlink">
<g id="graph0" class="graph" transform="scale(1 1) rotate(0) translate(4 280)">
<title>dependencies</title>
<polygon fill="#ffffff" stroke="transparent" points="-4,4 -4,-280 1345,-280 1345,4 -4,4"/>
<text text-anchor="start" x="649.5091" y="-42.4" font-family="sans-serif" font-weight="bold" font-size="14.00" fill="#000000">Legend</text>
<polygon fill="#ffffb3" stroke="transparent" points="436.5,-10 436.5,-30 456.5,-30 456.5,-10 436.5,-10"/>
<text text-anchor="start" x="460.129" y="-15.4" font-family="sans-serif" font-size="14.00" fill="#000000"> &#160;Declarations</text>
<polygon fill="#8dd3c7" stroke="transparent" points="549.5,-10 549.5,-30 569.5,-30 569.5,-10 549.5,-10"/>
<text text-anchor="start" x="573.2251" y="-15.4" font-family="sans-serif" font-size="14.00" fill="#000000"> &#160;Module</text>
<polygon fill="#80b1d3" stroke="transparent" points="635.5,-10 635.5,-30 655.5,-30 655.5,-10 635.5,-10"/>
<text text-anchor="start" x="659.2812" y="-15.4" font-family="sans-serif" font-size="14.00" fill="#000000"> &#160;Bootstrap</text>
<polygon fill="#fdb462" stroke="transparent" points="732.5,-10 732.5,-30 752.5,-30 752.5,-10 732.5,-10"/>
<text text-anchor="start" x="756.1732" y="-15.4" font-family="sans-serif" font-size="14.00" fill="#000000"> &#160;Providers</text>
<polygon fill="#fb8072" stroke="transparent" points="828.5,-10 828.5,-30 848.5,-30 848.5,-10 828.5,-10"/>
<text text-anchor="start" x="852.2258" y="-15.4" font-family="sans-serif" font-size="14.00" fill="#000000"> &#160;Exports</text>
<g id="clust1" class="cluster">
<title>cluster_AppModule</title>
<polygon fill="none" stroke="#000000" stroke-dasharray="1,5" points="8,-70 8,-268 1333,-268 1333,-70 8,-70"/>
</g>
<g id="clust2" class="cluster">
<title>cluster_AppModule_declarations</title>
<polygon fill="none" stroke="#000000" points="1203,-78 1203,-130 1325,-130 1325,-78 1203,-78"/>
</g>
<g id="clust4" class="cluster">
<title>cluster_AppModule_imports</title>
<polygon fill="none" stroke="#000000" points="1051,-78 1051,-130 1195,-130 1195,-78 1051,-78"/>
</g>
<g id="clust6" class="cluster">
<title>cluster_AppModule_bootstrap</title>
<polygon fill="none" stroke="#000000" points="617,-208 617,-260 741,-260 741,-208 617,-208"/>
</g>
<g id="clust7" class="cluster">
<title>cluster_AppModule_providers</title>
<polygon fill="none" stroke="#000000" points="16,-78 16,-130 1043,-130 1043,-78 16,-78"/>
</g>
<!-- AppComponent -->
<g id="node1" class="node">
<title>AppComponent</title>
<polygon fill="#ffffb3" stroke="#000000" points="1316.9399,-122 1211.0601,-122 1211.0601,-86 1316.9399,-86 1316.9399,-122"/>
<text text-anchor="middle" x="1264" y="-99.8" font-family="Times,serif" font-size="14.00" fill="#000000">AppComponent</text>
</g>
<!-- AppModule -->
<g id="node2" class="node">
<title>AppModule</title>
<polygon fill="#8dd3c7" stroke="#000000" points="720.6571,-187 717.6571,-191 696.6571,-191 693.6571,-187 637.3429,-187 637.3429,-151 720.6571,-151 720.6571,-187"/>
<text text-anchor="middle" x="679" y="-164.8" font-family="Times,serif" font-size="14.00" fill="#000000">AppModule</text>
</g>
<!-- AppComponent&#45;&gt;AppModule -->
<g id="edge1" class="edge">
<title>AppComponent&#45;&gt;AppModule</title>
<path fill="none" stroke="#000000" d="M1264,-122.0109C1264,-144.4852 1264,-180 1264,-180 1264,-180 731.0718,-180 731.0718,-180"/>
<polygon fill="#000000" stroke="#000000" points="731.0718,-176.5001 721.0718,-180 731.0717,-183.5001 731.0718,-176.5001"/>
</g>
<!-- AppComponent  -->
<g id="node4" class="node">
<title>AppComponent </title>
<polygon fill="#80b1d3" stroke="#000000" points="733.439,-252 624.561,-252 624.561,-216 733.439,-216 733.439,-252"/>
<text text-anchor="middle" x="679" y="-229.8" font-family="Times,serif" font-size="14.00" fill="#000000">AppComponent </text>
</g>
<!-- AppModule&#45;&gt;AppComponent  -->
<g id="edge3" class="edge">
<title>AppModule&#45;&gt;AppComponent </title>
<path fill="none" stroke="#000000" stroke-dasharray="1,5" d="M679,-187.1061C679,-187.1061 679,-205.991 679,-205.991"/>
<polygon fill="#000000" stroke="#000000" points="675.5001,-205.9909 679,-215.991 682.5001,-205.991 675.5001,-205.9909"/>
</g>
<!-- AppRoutingModule -->
<g id="node3" class="node">
<title>AppRoutingModule</title>
<polygon fill="#8dd3c7" stroke="#000000" points="1187.2744,-122 1184.2744,-126 1163.2744,-126 1160.2744,-122 1058.7256,-122 1058.7256,-86 1187.2744,-86 1187.2744,-122"/>
<text text-anchor="middle" x="1123" y="-99.8" font-family="Times,serif" font-size="14.00" fill="#000000">AppRoutingModule</text>
</g>
<!-- AppRoutingModule&#45;&gt;AppModule -->
<g id="edge2" class="edge">
<title>AppRoutingModule&#45;&gt;AppModule</title>
<path fill="none" stroke="#000000" d="M1123,-122.1289C1123,-142.5724 1123,-173 1123,-173 1123,-173 730.7704,-173 730.7704,-173"/>
<polygon fill="#000000" stroke="#000000" points="730.7705,-169.5001 720.7704,-173 730.7704,-176.5001 730.7705,-169.5001"/>
</g>
<!-- DbProvider -->
<g id="node5" class="node">
<title>DbProvider</title>
<ellipse fill="#fdb462" stroke="#000000" cx="979" cy="-104" rx="56.1802" ry="18"/>
<text text-anchor="middle" x="979" y="-99.8" font-family="Times,serif" font-size="14.00" fill="#000000">DbProvider</text>
</g>
<!-- DbProvider&#45;&gt;AppModule -->
<g id="edge4" class="edge">
<title>DbProvider&#45;&gt;AppModule</title>
<path fill="none" stroke="#000000" d="M979,-122.2667C979,-140.5552 979,-166 979,-166 979,-166 730.7137,-166 730.7137,-166"/>
<polygon fill="#000000" stroke="#000000" points="730.7137,-162.5001 720.7137,-166 730.7137,-169.5001 730.7137,-162.5001"/>
</g>
<!-- DbToolProvider -->
<g id="node6" class="node">
<title>DbToolProvider</title>
<ellipse fill="#fdb462" stroke="#000000" cx="831" cy="-104" rx="74.1605" ry="18"/>
<text text-anchor="middle" x="831" y="-99.8" font-family="Times,serif" font-size="14.00" fill="#000000">DbToolProvider</text>
</g>
<!-- DbToolProvider&#45;&gt;AppModule -->
<g id="edge5" class="edge">
<title>DbToolProvider&#45;&gt;AppModule</title>
<path fill="none" stroke="#000000" d="M831,-122.0091C831,-138.0494 831,-159 831,-159 831,-159 730.937,-159 730.937,-159"/>
<polygon fill="#000000" stroke="#000000" points="730.9371,-155.5001 720.937,-159 730.937,-162.5001 730.9371,-155.5001"/>
</g>
<!-- FileProvider -->
<g id="node7" class="node">
<title>FileProvider</title>
<ellipse fill="#fdb462" stroke="#000000" cx="679" cy="-104" rx="59.1257" ry="18"/>
<text text-anchor="middle" x="679" y="-99.8" font-family="Times,serif" font-size="14.00" fill="#000000">FileProvider</text>
</g>
<!-- FileProvider&#45;&gt;AppModule -->
<g id="edge6" class="edge">
<title>FileProvider&#45;&gt;AppModule</title>
<path fill="none" stroke="#000000" d="M679,-122.1061C679,-122.1061 679,-140.991 679,-140.991"/>
<polygon fill="#000000" stroke="#000000" points="675.5001,-140.9909 679,-150.991 682.5001,-140.991 675.5001,-140.9909"/>
</g>
<!-- GlobalProvider -->
<g id="node8" class="node">
<title>GlobalProvider</title>
<ellipse fill="#fdb462" stroke="#000000" cx="531" cy="-104" rx="70.6451" ry="18"/>
<text text-anchor="middle" x="531" y="-99.8" font-family="Times,serif" font-size="14.00" fill="#000000">GlobalProvider</text>
</g>
<!-- GlobalProvider&#45;&gt;AppModule -->
<g id="edge7" class="edge">
<title>GlobalProvider&#45;&gt;AppModule</title>
<path fill="none" stroke="#000000" d="M531,-122.0091C531,-138.0494 531,-159 531,-159 531,-159 626.985,-159 626.985,-159"/>
<polygon fill="#000000" stroke="#000000" points="626.9851,-162.5001 636.985,-159 626.985,-155.5001 626.9851,-162.5001"/>
</g>
<!-- RestProvider -->
<g id="node9" class="node">
<title>RestProvider</title>
<ellipse fill="#fdb462" stroke="#000000" cx="381" cy="-104" rx="61.4128" ry="18"/>
<text text-anchor="middle" x="381" y="-99.8" font-family="Times,serif" font-size="14.00" fill="#000000">RestProvider</text>
</g>
<!-- RestProvider&#45;&gt;AppModule -->
<g id="edge8" class="edge">
<title>RestProvider&#45;&gt;AppModule</title>
<path fill="none" stroke="#000000" d="M381,-122.2667C381,-140.5552 381,-166 381,-166 381,-166 627.2506,-166 627.2506,-166"/>
<polygon fill="#000000" stroke="#000000" points="627.2506,-169.5001 637.2506,-166 627.2506,-162.5001 627.2506,-169.5001"/>
</g>
<!-- SyncProvider -->
<g id="node10" class="node">
<title>SyncProvider</title>
<ellipse fill="#fdb462" stroke="#000000" cx="238" cy="-104" rx="63.7045" ry="18"/>
<text text-anchor="middle" x="238" y="-99.8" font-family="Times,serif" font-size="14.00" fill="#000000">SyncProvider</text>
</g>
<!-- SyncProvider&#45;&gt;AppModule -->
<g id="edge9" class="edge">
<title>SyncProvider&#45;&gt;AppModule</title>
<path fill="none" stroke="#000000" d="M238,-122.1289C238,-142.5724 238,-173 238,-173 238,-173 627.1142,-173 627.1142,-173"/>
<polygon fill="#000000" stroke="#000000" points="627.1142,-176.5001 637.1142,-173 627.1142,-169.5001 627.1142,-176.5001"/>
</g>
<!-- ToolsProvider -->
<g id="node11" class="node">
<title>ToolsProvider</title>
<ellipse fill="#fdb462" stroke="#000000" cx="90" cy="-104" rx="66.0723" ry="18"/>
<text text-anchor="middle" x="90" y="-99.8" font-family="Times,serif" font-size="14.00" fill="#000000">ToolsProvider</text>
</g>
<!-- ToolsProvider&#45;&gt;AppModule -->
<g id="edge10" class="edge">
<title>ToolsProvider&#45;&gt;AppModule</title>
<path fill="none" stroke="#000000" d="M90,-122.0109C90,-144.4852 90,-180 90,-180 90,-180 627.1128,-180 627.1128,-180"/>
<polygon fill="#000000" stroke="#000000" points="627.1128,-183.5001 637.1128,-180 627.1127,-176.5001 627.1128,-183.5001"/>
</g>
</g>
</svg>
